<svg
	width="128"
	height="128"
	viewBox="0 0 128 128"
	fill="none"
	xmlns="http://www.w3.org/2000/svg"
>
	<path
		d="M88.5333 31.04C84.8876 26.878 82.8785 21.533 82.88 16H66.4V82.1333C66.2729 85.7121 64.762 89.102 62.1854 91.589C59.6089 94.076 56.1677 95.4662 52.5867 95.4667C45.0133 95.4667 38.72 89.28 38.72 81.6C38.72 72.4267 47.5733 65.5467 56.6933 68.3733V51.52C38.2933 49.0667 22.1867 63.36 22.1867 81.6C22.1867 99.36 36.9067 112 52.5333 112C69.28 112 82.88 98.4 82.88 81.6V48.0533C89.5627 52.8525 97.586 55.4274 105.813 55.4133V38.9333C105.813 38.9333 95.7867 39.4133 88.5333 31.04Z"
		fill="black"
	/>
</svg>
